solid Servo Mixed Brands
facet normal 0.0 0.0 -1.0
  outer loop
    vertex -97.03497423856685 24.482651176203117 0.0
    vertex -117.13497423856685 4.3826511762031135 0.0
    vertex -117.13497423856685 24.482651176203117 0.0
  endloop
endfacet
facet normal 0.0 0.0 -1.0
  outer loop
    vertex -117.13497423856685 4.3826511762031135 0.0
    vertex -97.03497423856685 24.482651176203117 0.0
    vertex -97.03497423856685 4.3826511762031135 0.0
  endloop
endfacet
facet normal -0.0 -1.0 -0.0
  outer loop
    vertex -97.03497423856685 4.3826511762031135 20.1
    vertex -117.13497423856685 4.3826511762031135 0.0
    vertex -97.03497423856685 4.3826511762031135 0.0
  endloop
endfacet
facet normal -0.0 -1.0 -0.0
  outer loop
    vertex -117.13497423856685 4.3826511762031135 0.0
    vertex -97.03497423856685 4.3826511762031135 20.1
    vertex -117.13497423856685 4.3826511762031135 20.1
  endloop
endfacet
facet normal -0.0 1.0 0.0
  outer loop
    vertex -117.13497423856685 24.482651176203117 20.1
    vertex -97.03497423856685 24.482651176203117 0.0
    vertex -117.13497423856685 24.482651176203117 0.0
  endloop
endfacet
facet normal -0.0 1.0 0.0
  outer loop
    vertex -97.03497423856685 24.482651176203117 0.0
    vertex -117.13497423856685 24.482651176203117 20.1
    vertex -97.03497423856685 24.482651176203117 20.1
  endloop
endfacet
facet normal 0.0 0.0 1.0
  outer loop
    vertex -97.03497423856685 4.3826511762031135 20.1
    vertex -117.13497423856685 24.482651176203117 20.1
    vertex -117.13497423856685 4.3826511762031135 20.1
  endloop
endfacet
facet normal 0.0 0.0 1.0
  outer loop
    vertex -117.13497423856685 24.482651176203117 20.1
    vertex -97.03497423856685 4.3826511762031135 20.1
    vertex -97.03497423856685 24.482651176203117 20.1
  endloop
endfacet
facet normal -1.0 0.0 0.0
  outer loop
    vertex -117.13497423856685 24.482651176203117 20.1
    vertex -117.13497423856685 4.3826511762031135 0.0
    vertex -117.13497423856685 4.3826511762031135 20.1
  endloop
endfacet
facet normal -1.0 0.0 0.0
  outer loop
    vertex -117.13497423856685 4.3826511762031135 0.0
    vertex -117.13497423856685 24.482651176203117 20.1
    vertex -117.13497423856685 24.482651176203117 0.0
  endloop
endfacet
facet normal 1.0 0.0 0.0
  outer loop
    vertex -97.03497423856685 24.482651176203117 0.0
    vertex -97.03497423856685 4.3826511762031135 20.1
    vertex -97.03497423856685 4.3826511762031135 0.0
  endloop
endfacet
facet normal 1.0 0.0 0.0
  outer loop
    vertex -97.03497423856685 4.3826511762031135 20.1
    vertex -97.03497423856685 24.482651176203117 0.0
    vertex -97.03497423856685 24.482651176203117 20.1
  endloop
endfacet
endsolid Servo Mixed Brands
